. 
 
http://www.torrenting.com          :     Once & For all ;)


               www . Torrenting . Com 

(((((((((((((= Enjoy No RAR releases =))))))))))))))))))))


...................................NFO:....................................

.+-----------------------------------------------------------------------------+
+----------------------------------FUSiON-------------------------------------+
+-----------------------------------------------------------------------------+
+-----------------------------------------------------------------------------+
PLOT :------------------------------------------------------------------------+
+-----------------------------------------------------------------------------+

A future-set story where robot boxing is a popular sport and centered on a 
struggling promoter (Jackman) who thinks he's found a champion in a discarded 
robot. During his hopeful rise to the top, he also discovers he has an 
11-year-old son who wants to know his father.

+-----------------------------------------------------------------------------+
Short Info :------------------------------------------------------------------+
+-----------------------------------------------------------------------------+

Genre:............: Action, Drama, Sci-Fi
Directed by.......: Shawn Levy
Starring..........: Hugh Jackman, Dakota Goyo, Evangeline Lilly, Anthony Mackie
Release Name......: Real.Steel.2011.DVDRip.XViD-FURiES
Release Group.....: FURiES
Size..............: 2.14 GB
Video.............: 720x304 805 Kbps 23.976 fps
Audio.............: MP3 320 Kbps
Language:.........: English
Subtitles.........: None

+-----------------------------------------------------------------------------+
Full Info :-------------------------------------------------------------------+
+-----------------------------------------------------------------------------+
   General
      Complete name : Real.Steel.2011.DVDRip.XViD-FURiES.avi
      Format : AVI
      Format/Info : Audio Video Interleave
      Format profile : OpenDML
      File size : 2.15 GiB
      Overall bit rate : 933 Kbps
      Writing application : Lavf51.12.1
   Video
      Format : xvid
      Codec ID : xvid
      Duration : 5h 29mn
      Bit rate : 805 Kbps
      Width : 720 pixels
      Height : 304 pixels
      Display aspect ratio : 2.35:1
      Frame rate : 23.976 fps
      Resolution : 24 bits
      Bits/(Pixel*Frame) : 0.153
      Stream size : 1.85 GiB (86%)
   Audio #1
      ID : 1
      Format : MPEG Audio
      Format version : Version 1
      Format profile : Layer 3
      Codec ID : 55
      Codec ID/Hint : MP3
      Bit rate mode : Constant
      Bit rate : 320 Kbps
      Channel(s) : 2 channels
      Sampling rate : 44.1 KHz
      Resolution : 16 bits
      Stream size : 290 MiB (13%)
      Alignment : Aligned on interleaves
      Interleave, duration : 26 ms (0.63 video frame)
      Interleave, preload duration : 26 ms
      Writing library : LAME3.97
+-----------------------------------------------------------------------------+
IMDB : -----------------------------------------------------------------------+
+-----------------------------------------------------------------------------+
 
http://www.imdb.com/title/tt0433035/

+-----------------------------------------------------------------------------+
Screens :---------------------------------------------------------------------+
+-----------------------------------------------------------------------------+

[img]http://img208.imageshack.us/img208/2711/rsteel.jpg[/img]
[img]http://img707.imageshack.us/img707/7898/rsteell.jpg[/img]
[img]http://img819.imageshack.us/img819/585/rsteelll.jpg[/img]
[img]http://img27.imageshack.us/img27/2151/rsteellll.jpg[/img]

+-----------------------------------------------------------------------------+
Greetings and Respect :-------------------------------------------------------+
+-----------------------------------------------------------------------------+

ViSiON, CM8, BHRG, NODLABS, AMIABLE, THUGLiNE, NeDiVx, Larceny, 
PRESTiGE, HD4U, LOST, PSYCHD  ...

+-----------------------------------------------------------------------------+
+----------------------------------FUSiON-------------------------------------+
+-----------------------------------------------------------------------------+